<?xml version="1.0" encoding="UTF-8"?>
<svg xmlns="http://www.w3.org/2000/svg" xmlns:xlink="http://www.w3.org/1999/xlink" width="240px" height="240px" viewBox="0 0 240 240" version="1.1">
<g id="surface1">
<path style=" stroke:none;fill-rule:nonzero;fill:rgb(13.333333%,17.254902%,21.568627%);fill-opacity:1;" d="M 131.703125 91.261719 L 124.707031 91.261719 L 124.707031 123.601562 C 124.707031 131.894531 123.003906 138.527344 117.988281 138.527344 C 113.027344 138.636719 111.589844 131.808594 111.589844 123.167969 L 111.589844 91.289062 L 104.589844 91.289062 L 104.589844 126.6875 C 104.589844 136.929688 106.402344 151.488281 115.996094 151.636719 C 121.277344 151.742188 123.886719 146.625 125.109375 142.035156 L 125.109375 149.816406 L 131.679688 149.816406 Z M 134.46875 149.78125 L 141.453125 149.78125 L 141.453125 117.480469 C 141.453125 109.273438 143.15625 102.664062 148.117188 102.550781 C 153.019531 102.550781 154.460938 109.273438 154.460938 118.011719 L 154.460938 149.78125 L 161.445312 149.78125 L 161.445312 114.492188 C 161.445312 104.152344 159.628906 89.542969 150.089844 89.4375 C 144.867188 89.328125 142.25 94.449219 140.976562 99.035156 L 141.03125 91.257812 L 134.46875 91.257812 Z M 164.109375 83.359375 L 171.09375 83.359375 L 171.09375 70.878906 L 164.109375 70.878906 Z M 164.109375 149.777344 L 171.09375 149.777344 L 171.09375 91.257812 L 164.109375 91.257812 Z M 178.398438 149.785156 L 185.382812 149.785156 L 185.382812 102.023438 L 190.390625 102.023438 L 188.316406 91.257812 L 185.398438 91.257812 L 185.398438 70.878906 L 178.398438 70.878906 L 178.398438 91.265625 L 173.550781 91.265625 L 173.550781 102.03125 L 178.398438 102.03125 Z M 197.132812 170.253906 L 204.59375 170.253906 L 220 91.261719 L 212.535156 91.261719 L 205.496094 130.167969 L 198.367188 91.261719 L 190.890625 91.261719 L 201.925781 147.554688 Z M 91.058594 105.023438 L 83.261719 47.167969 L 54.199219 62.679688 L 49.902344 77.785156 L 41.203125 77.664062 L 20 120.011719 L 41.242188 162.351562 L 49.957031 162.21875 L 54.257812 177.324219 L 83.257812 192.828125 L 91.03125 134.980469 L 86.640625 120 Z M 72.859375 68.839844 L 60.121094 112.855469 L 34.640625 112.855469 L 50.679688 80.214844 Z M 60.121094 127.238281 L 72.859375 171.253906 L 50.660156 159.84375 L 34.621094 127.253906 L 60.101562 127.253906 Z M 66.320312 120.09375 L 79.085938 76 L 85.242188 120.015625 L 79.085938 164.015625 Z M 66.320312 120.09375 "/>
</g>
</svg>
